<?xml version="1.0" encoding="utf-8"?>
<!-- Generator: Adobe Illustrator 19.0.0, SVG Export Plug-In . SVG Version: 6.00 Build 0)  -->
<svg version="1.1" id="Capa_1" xmlns="http://www.w3.org/2000/svg" xmlns:xlink="http://www.w3.org/1999/xlink" x="0px" y="0px"
	 viewBox="0 0 841.9 595.3" style="enable-background:new 0 0 841.9 595.3;" xml:space="preserve">
<style type="text/css">
	.st0{fill:#852484;}
	.st1{fill:#42B6A1;}
	.st2{fill:#009FE3;}
	.st3{fill:#F39200;}
</style>
<circle id="XMLID_1_" class="st0" cx="179.5" cy="160.9" r="107.1"/>
<g id="XMLID_2_">
	<g id="XMLID_14_">
		<path id="XMLID_18_" class="st1" d="M332.2,354.4c-6.9-11.5-4.3-26.4,4.1-36.5c8.3-9.8,20.8-15,33.3-17c7.8-1.3,15.4-1.2,21.9,4
			c5.1,4.1,9.5,9.4,13.5,14.5c8.2,10.2,14.3,21.4,20,33.2c4.2,8.6,9.4,18.4,18.6,22.4c12,5.2,26.1-2.5,37.5-6.2
			c19.9-6.6,46.3-12.3,58.4-31.4c13.1-20.9-0.9-45.3-19.7-56.8c-17.2-10.5-42.2-17.5-61.4-8.5c-10.2,4.8-15.9,14.1-18.5,24.7
			c-2.6,10.8-3.8,22.3-3.2,33.4c1.3,21.1,11.5,39.8,32.6,46.2c20.6,6.2,42.5,1,63.4,5.1c10.9,2.2,20.3,7.3,27,16.3
			c5.8,7.8,9.5,16.8,13.9,25.4c4.2,8.2,9,16.4,16.5,21.9c9.3,6.8,20.8,7.6,31.8,5.3c23.2-4.7,45.8-18.2,64.2-32.8
			c18.7-14.9,34.6-33.4,46.4-54.2c12.1-21.6,20.8-48.5,10.9-72.6c-8.6-21-28.6-34.5-48.2-44.2c-9.6-4.8-21.4-10.6-30.4-1.6
			c-7.5,7.6-9.5,20.1-12.7,29.8c-8.8,26.4-21,50.1-42.6,68.2c-11,9.1-23,17-35,24.8c-12.3,8.1-24.8,16-37.4,23.6
			c-12.6,7.6-25.4,15-38.3,22.1c-12.8,7.1-25.8,14.8-39.4,20.3c-12.3,5-25.3,6.4-38.3,3.3c-13-3.2-24.9-10-35.4-18.2
			c-9.9-7.8-18.8-16.8-26.9-26.4c-1.9-2.2-5.3,0.6-3.9,3c14.8,25.3,28.8,51.3,44.8,75.8c14.4,22,33.9,37.3,57.5,48.4
			c47.5,22.4,101,26.2,152.8,26.6c25.7,0.2,51.8,0.8,77.3-3.1c12.7-1.9,25.1-5.3,36.7-10.7c9.1-4.3,19.4-10.6,17.8-22.3
			c-1.3-9.5-8.8-17.8-16.2-23.4c-7.9-6.1-17.5-9.9-27.3-11.8c-21.7-4.1-43.4,0.3-63.4,8.7c-24.6,10.3-47.1,25.3-72.5,33.7
			c-26.8,8.9-55.2,10.4-83.2,10.7c-29.6,0.3-59.1,0.3-88.7,1.7c-14,0.7-28,1.9-42,2.6c-6.2,0.3-13,0.3-18.6-3
			c-5.5-3.3-8.3-9-9.8-15.1c-1.3-5.3-1.7-10.8-1.8-16.2c-0.1-4.3,0.2-7.3,4.4-9.5c3.4-1.8,8.1-2.5,11.8-3.3
			c13-2.9,26.5-3.7,39.8-2.8c28.4,1.8,56.1,10.6,82,21.8c25.1,10.8,49.1,23.7,74,35.1c23.9,11,49.6,22.1,76.1,24.3
			c11.9,1,24.1-0.2,35.1-5.2c10.9-4.9,19.9-13.1,27.2-22.3c14.8-18.6,24.7-41.2,14.5-64.4c-10.2-23.1-33.7-35.8-57.1-42
			c-24.3-6.4-49.6-6.5-74.5-3.9c-51.9,5.4-103.1,22-155.8,17.6c-13.4-1.1-28.5-3.1-39.3-11.9c-9.8-7.9-14.5-20.6-8.6-32.4
			c12.1-23.8,42.9-21.2,64.3-14.5c25.7,8.2,49.6,22.2,73.8,33.8c25.1,12,50.9,23.1,78.2,29c13.1,2.8,26.5,4.5,39.9,4.3
			c11.8-0.1,25.7-0.5,35.9-7.1c9.3-6,13.9-16.5,17.3-26.6c3.7-10.9,6.3-23.4,2.2-34.5c-8-22.1-34.9-25.4-54.8-20.6
			c-13.2,3.2-25.8,8.7-38.7,13c-13.6,4.5-27.5,8.2-41.6,11.3c-26.3,5.7-54.5,10.4-81.3,5c-12.7-2.5-27.2-7.1-35.2-18
			c-3.6-4.9-5.6-11.4-1.8-16.9c4.1-5.8,12.6-8.2,19.1-10.2c54.5-16.7,109.7,11,161,26.2c13,3.8,26.1,7,39.5,8.9
			c11.8,1.6,24.6,2.9,36.4,0.5c8-1.6,17.1-5.5,20.6-13.5c4.2-9.7-2.5-18.6-9.2-25c-34.1-33.1-84-55.2-131.4-40.7
			c-25.4,7.8-47.5,23.1-72.4,32.2c-24.1,8.8-49.9,13.5-75.6,12.3c-12.4-0.6-24.7-2.6-36.6-6.1c-6.1-1.8-12.1-4-17.9-6.7
			c-2.5-1.1-5.2-2.2-7.4-3.7c-0.6-0.4-6.3-6.1-3.5-6.6c3.2-0.6,1.8-5.4-1.3-4.8c-8.4,1.6-2.9,12.1,1.4,15.2
			c9.2,6.5,22.1,10.3,32.9,13c23.8,6.1,48.8,6.2,72.9,2.1c25.1-4.3,48.1-13.9,70.7-25.3c23.7-12,47.4-22.8,74.6-21
			c25,1.7,48.7,12.1,69,26.4c5.2,3.7,10.2,7.6,14.9,11.8c4.8,4.3,10.6,8.9,13.5,14.7c6,12-6.9,19-16.7,20.9
			c-13.1,2.6-27.9,0.6-40.9-1.6c-13.4-2.3-26.5-5.9-39.4-9.9c-26.7-8.4-52.9-18.8-80.4-24.6c-25-5.3-51.5-7.1-76.1,0.5
			c-9.1,2.8-21.1,6.7-24.2,17c-3.1,10.1,4.3,19.7,11.9,25.5c19.1,14.7,47.8,15.9,70.8,14c27-2.2,53.9-8.4,79.7-16.4
			c13.6-4.2,26.8-10,40.5-13.7c12.1-3.3,25.2-4.6,37,0.8c12.6,5.8,18.3,17.7,16.9,31.2c-1.2,11.7-5.7,26.2-13.6,35.2
			c-9.3,10.5-25.6,10.9-38.7,11c-14.5,0.1-29-1.8-43.1-5.2c-27.7-6.6-53.8-18.3-79.3-30.7c-23.2-11.3-46.3-24.7-71.2-31.9
			c-19.6-5.7-43.1-7.3-59.2,7.6c-7.6,7-12.5,17.5-10.8,27.9c1.6,9.9,8.3,18.3,16.5,23.6c10.5,6.7,23.2,8.8,35.4,10.1
			c12.5,1.3,25.1,1.3,37.6,0.5c52.1-3.3,102.9-20.6,155.4-19.3c25.3,0.6,53,5.5,73.8,20.8c10.4,7.7,18.7,18.5,22,31.2
			c3.7,14-0.7,27.6-8,39.7c-6.4,10.5-14.6,20.7-24.7,27.8c-11.4,8-24.9,10.8-38.7,10.2c-27.3-1.3-54.3-13.3-78.7-24.6
			c-48.5-22.3-95.6-50.6-149.8-56.2c-13.2-1.4-26.5-1.2-39.6,0.8c-6.4,1-12.9,2.3-19,4.4c-5,1.7-8.5,4.3-9.4,9.8
			c-1.3,8.8,0.3,20.2,3.7,28.4c4.2,9.9,12.8,15.1,23.3,15.9c13.2,1,27-1.3,40.2-2.1c15-0.8,30.1-1.4,45.1-1.8
			c28.3-0.7,56.7,0.4,84.9-1.6c26.7-2,52.1-7.8,76.4-19.3c23.3-11,45.7-25.5,71-31.5c20.2-4.8,43.8-4.2,61.7,7.6
			c8.7,5.8,23.6,20.5,14.1,31.3c-3.9,4.5-10.4,7.2-15.7,9.5c-6.6,2.8-13.5,5-20.5,6.6c-25.7,5.9-52.7,5.2-79,5.2
			c-26.3,0-52.7-0.7-78.9-4c-26.4-3.4-52.7-9.5-77-20.5c-12.4-5.6-24.5-12.3-35.1-20.9c-10.4-8.5-18.6-18.9-25.7-30.2
			c-15-23.8-28.6-48.5-42.8-72.8c-1.3,1-2.6,2-3.9,3c15.2,17.8,33.4,34.7,55.6,43.2c10.3,3.9,21.5,5.6,32.5,4.2
			c12.4-1.6,23.7-7.3,34.6-13c24.7-12.9,49-26.8,72.8-41.5c22.3-13.8,45.7-27.7,65.4-45.1c18.7-16.5,30.2-37.9,38.4-61.2
			c2.1-5.8,4-11.7,5.8-17.7c1.7-5.3,3.3-11.1,7-15.4c5.5-6.5,13.1-4.3,19.9-1.2c5.4,2.5,10.8,5.3,16,8.3
			c20.3,11.8,38.3,29.2,39.4,54c1.1,25.3-12.4,50-27.1,69.7c-14,18.6-31.5,34.6-51.4,46.7c-10.2,6.2-21.1,11.5-32.4,15.5
			c-12.3,4.3-26.7,6.9-38.1-1c-15.2-10.6-19-31.8-29.6-46.2c-11.9-16.2-30.4-20-49.5-20.4c-19.3-0.5-42.8,2.5-58.6-11
			c-17.6-15.2-16.3-43.4-11.7-64c2.6-11.8,8.8-21.3,20.8-24.9c10.1-3,21.1-1.8,31.1,1c22.2,6.3,51.7,26.5,41.6,53.7
			c-8.1,21.7-37.8,27.7-57.1,34.1c-6.5,2.2-12.9,4.5-19.5,6.5c-7.3,2.2-14.3,2.5-20.4-2.7c-7.9-6.8-11.5-17.8-16.2-26.8
			c-5.6-10.8-12.6-20.8-20.6-29.9c-8-9.1-16-16.2-28.8-15.4c-20.8,1.3-43.5,11.9-50.3,33c-3.1,9.5-2.3,19.9,2.8,28.6
			C329.5,359.7,333.9,357.2,332.2,354.4L332.2,354.4z"/>
	</g>
</g>
<g id="XMLID_3_">
	<g id="XMLID_37_">
		<path id="XMLID_41_" class="st2" d="M496.1,85.1c8.8,8.1,18.1,16.3,29.2,21c11.8,5,23.7,4,35.6-0.4c26.9-10.1,52.8-24,77.6-38.4
			c2.8-1.6,0.3-5.9-2.5-4.3c-22.8,13.3-46.5,25.4-70.8,35.6c-11.9,5-23.9,8.2-36.5,3.5c-11.2-4.3-20.4-12.6-29.1-20.6
			C497.3,79.4,493.8,83,496.1,85.1L496.1,85.1z"/>
	</g>
</g>
<g id="XMLID_4_">
	<g id="XMLID_31_">
		<path id="XMLID_35_" class="st2" d="M576.9,37.5c-16.9,16-30.9,35.1-41,56.1c-5,10.3-9,21.1-12.1,32.2c-2.9,10.5-4.2,23.6-13,31.2
			c-9.3,7.9-23.3,6.6-34.6,6.1c-7.2-0.3-14.3-0.8-21.4-1.4c-6.9-0.6-15.5-0.4-21.9-3.6c-9.7-4.7-10-17.2-9.3-26.6
			c0.2-2.2,0-5.2,0.9-7.2c2.3-5,6.9-1,10.2,1c6.2,3.8,12.5,7.5,18.7,11.3c27.5,16.6,54.9,33.2,82.4,49.8c2.8,1.7,5.3-2.7,2.5-4.3
			c-28.3-17.1-56.6-34.2-84.9-51.3c-6.8-4.1-13.4-8.5-20.4-12.3c-3.8-2.1-8.4-3.5-11.5,0.6c-2.8,3.6-2.7,9.5-3,13.8
			c-0.3,5.5-0.2,11.2,1.4,16.5c3.7,12,13.7,15,25.1,16.3c14.7,1.6,29.9,3.1,44.8,2.6c11.7-0.4,23.1-3.6,29.7-13.9
			c6.5-10.1,7.7-23.1,11.2-34.4c9.5-30,26.8-57.3,49.6-78.9C582.8,38.8,579.3,35.3,576.9,37.5L576.9,37.5z"/>
	</g>
</g>
<g id="XMLID_5_">
	<g id="XMLID_24_">
		<path id="XMLID_29_" class="st2" d="M653.1,128c-6.1,16.8-7.3,35.1-3,52.5c1.5,6.1,3.6,14.2,11.4,13.6c3.6-0.3,6.8-2.4,9.8-4.2
			c4-2.4,8-4.8,12-7.2c33.9-19.8,69.2-37.3,105.5-52.3c2-0.8,2.5-3.3,0.6-4.6c-14-9.7-28.5-18.6-43.6-26.6
			C734.8,93.5,715,87.9,713,73.4c-0.4-2.9-4.8-2-4.9,0.7c-1.9,49.8-38,91.4-37.6,141.7c0,3.2,5,3.2,5,0
			c-0.4-50.2,35.7-91.8,37.6-141.7c-1.6,0.2-3.3,0.4-4.9,0.7c2,14.7,18.8,20.5,30.2,26.3c16.9,8.5,33.1,18.3,48.6,29.1
			c0.2-1.5,0.4-3,0.6-4.6c-31,12.8-61.2,27.3-90.4,43.6c-7.3,4.1-14.6,8.3-21.8,12.6c-3.5,2.1-7,4.6-10.7,6.3
			c-3.2,1.5-6.2,1.1-7.7-2.4c-0.8-1.8-1.2-3.8-1.7-5.6c-4.3-16.8-3.2-34.5,2.8-50.7C659.1,126.3,654.2,124.9,653.1,128L653.1,128z"
			/>
	</g>
</g>
<g id="XMLID_6_">
	<g id="XMLID_42_">
		<path id="XMLID_46_" class="st3" d="M98.6,372.9c15.7,35.3,31.3,70.7,47,106c0.7,1.6,3.6,1.7,4.3,0c14.2-33.1,26.6-67,37-101.5
			c0.8-2.7-3.2-4.4-4.6-1.9c-15.7,29.4-34.3,57.2-55.8,82.6c-5.3,6.3-10.8,12.5-16.4,18.5c-4.9,5.3-11.2,14.2-18.8,15.5
			c-4.7,0.8-8.8-2.2-12.6-4.5c-3.8-2.3-7.7-4.7-11.5-7c-7.7-4.7-15.3-9.3-23-14c-0.4,1.6-0.8,3.1-1.3,4.7
			c39.4-0.8,78.8-1.1,118.3-0.9c9.9,0,19.9,0.1,29.8,0.2c4.6,0,9.3,0.1,13.9,0.2c4.8,0.1,10,0.7,14.8,0.1c6.3-0.8,7-6.2,5.4-11.4
			c-2.8-9.1-6.4-18-9.8-26.8c-7.6-19.7-15.9-39.2-24.9-58.3c-0.6-1.3-3-1.7-3.9-0.5c-9.1,11.7-17.9,23.7-26.2,35.9
			c-7.8,11.5-14.7,23.9-23.4,34.8c-7.5,9.3-17.3,17.8-29.7,19.1c-10.9,1.1-22.5-2.8-27-13.4c0,0.8,0,1.7,0,2.5
			c1.6-2.5,3.8-3.9,6.8-4.3c3.2-0.4,3.2-5.4,0-5c-4.3,0.5-12.4,3.7-11.1,9.3c1.3,5.4,7.3,10.2,12.1,12.5c11.4,5.7,25.6,4.2,36.3-2.5
			c13.6-8.5,22.2-22.6,30.6-35.8c11-17.1,22.7-33.7,35.2-49.7c-1.3-0.2-2.6-0.3-3.9-0.5c7.5,15.9,14.5,32,21,48.3
			c3.2,8,6.2,16,9.1,24c1.4,3.9,3,7.7,4.1,11.7c0.8,2.7,1,4.3-2.4,5.1c-2.3,0.5-5.6-0.1-8-0.1c-35.4-0.5-70.9-0.6-106.3-0.3
			c-20.2,0.2-40.4,0.4-60.6,0.8c-2.5,0-3.4,3.4-1.3,4.7c8.8,5.3,17.5,10.6,26.3,16c6.1,3.7,13.4,10,21,10.3
			c7.7,0.3,13.6-5.5,18.6-10.7c6.1-6.3,12.1-12.8,17.9-19.5c23.7-27.3,44.2-57.2,61.2-89c-1.5-0.6-3-1.3-4.6-1.9
			c-10.3,34.1-22.4,67.6-36.5,100.3c1.4,0,2.9,0,4.3,0c-15.7-35.3-31.3-70.7-47-106C101.6,367.4,97.3,369.9,98.6,372.9L98.6,372.9z"
			/>
	</g>
</g>
</svg>
